<svg height="512pt" viewBox="-39 0 512 512" width="512pt" xmlns="http://www.w3.org/2000/svg"><path d="m274 512h-194c-44.113281 0-80-35.886719-80-80v-352c0-44.113281 35.886719-80 80-80h194c44.113281 0 80 35.886719 80 80v31.121094c0 11.046875-8.953125 20-20 20s-20-8.953125-20-20v-31.121094c0-22.054688-17.945312-40-40-40h-194c-22.054688 0-40 17.945312-40 40v352c0 22.054688 17.945312 40 40 40h194c22.054688 0 40-17.945312 40-40v-37.878906c0-11.046875 8.953125-20 20-20s20 8.953125 20 20v37.878906c0 44.113281-35.886719 80-80 80zm-77-90.878906c0-11.046875-8.953125-20-20-20s-20 8.953125-20 20 8.953125 20 20 20 20-8.953125 20-20zm20-330c0-11.046875-8.953125-20-20-20h-40c-11.046875 0-20 8.953125-20 20s8.953125 20 20 20h40c11.046875 0 20-8.953125 20-20zm27.285156 265c9.082032 0 18.054688-5.984375 20.515625-14.648438l45.425781-159.796875c3.648438-12.824219-6.074218-25.554687-19.511718-25.554687-9.082032 0-17.054688 5.984375-19.515625 14.648437l-45.425781 159.800781c-3.644532 12.824219 5.074218 25.550782 18.511718 25.550782m-51.960937-24.148438c7.097656-8.464844 5.988281-21.082031-2.476563-28.175781l-49.460937-41.472656c-2.074219-1.785157-2.386719-4.023438-2.386719-5.203125 0-1.179688.3125-3.417969 2.386719-5.203125l49.460937-41.472657c8.464844-7.09375 9.574219-19.710937 2.476563-28.175781-7.09375-8.460937-19.710938-9.574219-28.175781-2.476562l-49.523438 41.523437c-.03125.027344-.066406.054688-.097656.085938-10.503906 8.917968-16.527344 21.9375-16.527344 35.71875s6.023438 26.800781 16.527344 35.71875c.03125.027344.0625.054687.097656.085937l49.523438 41.523438c3.746093 3.140625 8.304687 4.671875 12.839843 4.671875 5.710938 0 11.382813-2.433594 15.335938-7.148438zm175.679687 2.34375 48.46875-41.476562c10.503906-8.917969 16.527344-21.9375 16.527344-35.71875s-6.023438-26.800782-16.472656-35.671875l-48.523438-41.523438c-8.394531-7.183593-21.019531-6.199219-28.199218 2.191407-7.183594 8.394531-6.199219 21.019531 2.191406 28.199218l48.582031 41.570313c2.105469 1.789062 2.421875 4.046875 2.421875 5.234375 0 1.183594-.3125 3.441406-2.476562 5.277344l-48.527344 41.527343c-8.390625 7.179688-9.375 19.804688-2.191406 28.195313 3.957031 4.625 9.5625 7 15.207031 7 4.597656 0 9.222656-1.578125 12.992187-4.804688zm0 0"/></svg>