<svg id="svg903" height="512" viewBox="0 0 135.46666 135.46667" width="512" xmlns="http://www.w3.org/2000/svg" xmlns:svg="http://www.w3.org/2000/svg"><g id="layer1"><g id="g1898" transform="matrix(1.006 0 0 1.006 -.504 -.121)"><path id="path1889" d="m228.64844 11.3125c-3.65452-.06426-7.38261.10226-11.37696.623047-18.57112 2.421503-33.97064 9.098192-47.84179 22.367187.74726-.714889-2.91557 2.442404-4.60742 3.691407-4.41207 3.257556-8.4183 6.830307-12.14258 10.511718-3.72428 3.681415-6.54943 5.986475-10.47461 12.660157-3.79943 6.459273-5.97113 14.147543-6.02344 22.101562l-1.31445 2.16211c-2.59732 3.458615-4.95391 7.12124-6.84375 11.589843-1.62364 3.839159-3.1586 8.429459-2.9375 14.861329s3.48677 15.18543 9.46289 20.59375c2.83292 2.5637 6.38311 4.42284 9.95898 5.625-1.4968 3.72763-2.53906 7.55636-2.53906 10.54297 0 1.31668-.0972 3.32779.85547 7.06445.43742 1.71563 1.40637 3.96366 2.66601 6.21485-.93086 15.46111-1.0759 34.17224 1.26954 48.58007 2.29731 14.11252 5.08989 27.00345 11.2207 39.19727 8.46734 16.84101 21.43935 29.94538 38.59961 37.4043-4.00154 4.67183-7.72429 9.8082-10.23242 14.96289l-.26563.53906c-2.76122 1.72473-8.6382 5.21998-12.05469 7.16015-18.26383 10.37131-30.25728 19.89377-38.27343 32.31055-4.00049 6.19658-7.35217 13.08961-12.10743 22.55274-4.75525 9.46313-9.75446 19.79029-13.16992 27.48242-7.99458 18.00506-18.847838 48.10791-22.669919 65.45508-.101089.45884-.212047.83414-.330079 1.28125.382196-.65792.86111-1.45688 1.585938-2.61719-5.063554 8.10792-5.104891 22.2185 1.078125 30.61914 6.18302 8.40064 15.262885 11.36133 22.876955 11.36133 1.03098 0 290.90561.95397 296.04297-1.01758 6.39035-2.45212 16.11368-12.02484 17.68554-21.38477 1.57183-9.35988-.95357-14.41498-2.61328-18.26367 1.17188 2.71797-1.50094-4.63704-2.56836-8.68945v-.006c-1.2754-4.84165-4.45436-16.91091-7.05664-26.80469-5.53035-21.02483-10.63152-38.6671-15.14843-52.38867-4.51688-13.72157-6.23082-21.4779-13.81055-31.94141-4.75178-6.55976-5.88387-6.39252-8.66016-8.74023-2.7763-2.34771-5.99257-4.90528-9.49219-7.58789-6.14194-4.70807-12.86197-9.44227-19.04492-13.53125-.18308-4.11003-.70534-8.42369-2.45898-13.16992-2.87198-7.77301-8.13638-13.62245-12.42383-17.5918-3.29184-3.04769-6.08323-4.50781-8.97656-6.30273.69057-6.1019 1.5461-13.30244 2.47461-20.68555.64016-5.08962 1.23882-9.41598 1.85156-13.99609 5.69078-1.92632 10.96983-4.70772 15.24414-8.29688 10.12377-8.50099 17.25977-21.22445 17.25977-36.40039 0-10.42308-4.18768-21.21826-11.57618-29.40234.9838-2.65234 2.06742-5.75682 2.64258-6.90235 1.28419-2.55766 2.17917-4.85229 3.23438-7.24023 0 0 7.20907-8.33211 7.93554-9.0586 2.66686-2.66669 4.2291-4.96692 5.69141-7.75781s3.35742-5.28294 3.35742-13.2207c0-9.98493-3.23305-14.58819-5.95703-18.941408-2.06433-3.299017-4.57684-6.026469-7.10742-8.806641-.41081-3.714319-1.2055-6.502579-2.01563-9.951172-1.33219-5.670939-2.61643-10.791177-5.58789-17.074218-2.46116-5.204115-4.27377-8.185773-8.17968-12.837891-.62261-.741524-3.27967-4.20516-4.23047-5.566406-6.18141-8.849684-15.13197-15.524621-24.625-20.019532l-4.93164-2.332031c-3.46927-1.644393-7.27062-2.467753-11.10938-2.40625l-11.70703.191407-7.27148.11914-2.90821-1.011719c-9.39398-3.269714-19.28139-4.869757-29.78711-6.193219-5.25286-.661731-10.06984-1.276731-14.90429-1.550781-1.20862-.06851-2.41855-.1153-3.63672-.136719zm-141.171878 447.53516c-1.784643 3.07211-.377339 1.40645-.259765 1.01367.06303-.21063.166415-.66006.259765-1.01367z" fill="#fff" transform="scale(.265)" font-variant-ligatures="normal" font-variant-position="normal" font-variant-caps="normal" font-variant-numeric="normal" font-variant-alternates="normal" font-variant-east-asian="normal" font-feature-settings="normal" font-variation-settings="normal" text-indent="0" text-align="start" text-decoration-line="none" text-decoration-style="solid" text-decoration-color="#000000" text-transform="none" text-orientation="mixed" white-space="normal" shape-padding="0" shape-margin="0" inline-size="0" isolation="auto" mix-blend-mode="normal" solid-color="#000000" solid-opacity="1" vector-effect="none"/><path id="path1656" d="m71.682819 125.63241c-.28411-.37086-.62661-5.96809-.62357-10.19093.003-3.43929-.0446-4.00718-.51067-6.16108-.44932-2.07629-.51157-2.75729-.49866-5.45312.0124-2.56836.0948-3.45303.49596-5.320928.26469-1.232222.52491-2.66288.57835-3.179286.092-.889434 1.36589-5.251521 1.89876-6.501778.10588-.248425-.11496-.157541-.7824.321966-2.68214 1.926921-4.99594 1.866297-7.07337-.185393l-.73306-.723874-.0464 5.134227c-.0546 6.02789-.24907 7.725516-1.55098 13.535696-.50618 2.25905-1.01645 4.9901-1.1339 6.06899-.19209 1.76457-.17211 2.22066.19894 4.5404.40047 2.50408.46278 5.89511.11853 6.45216-.18724.30294-.95573.25468-1.23129-.0773-.1715-.20665-.20598-.72364-.12486-1.8729.0808-1.14456.0114-2.19787-.24884-3.77524-.62777-3.80605-.48037-5.55015 1.02913-12.17621 1.00105-4.3941 1.40276-7.320954 1.40276-10.220465v-2.173369l-.74509-1.254135c-.85098-1.432428-2.4552-3.265673-3.01246-3.44255-.70562-.22394-.93925.14555-3.49555 5.528421-.89794 1.890731-1.44761 2.306693-2.25554 1.706825-.67445-.500745-.99169-1.837963-.84342-3.55491.10086-1.16763.69165-4.098274 1.13149-5.612948.12097-.416525.0557-.39638-.97255.299728-.60619.410438-2.23073 1.437003-3.61008 2.281275-5.12691 3.13803-5.56355 3.649601-9.03864 10.588858-2.48592 4.96411-4.43887 9.29346-4.48072 9.93307-.0251.38306.18952.53708 1.64745 1.18228.92202.40802 2.18226.87149 2.80051 1.02996 1.45849.37377 4.34327.43071 4.55568.0899.0843-.1352.25598-1.2079.38158-2.38379l.22844-2.13795-.48943-.58166c-.97216-1.15537-1.57287-2.79164-1.22335-3.3323.25154-.38908.70125-.0843 1.40152.9499l.55647.82171.23879-1.67172c.25194-1.76347.40066-2.08664.87617-1.90419.38753.14873.38949 2.10847.006 6.262-.54856 5.94493-1.25476 9.19149-2.77834 12.77221-.44624 1.04872-.86981 2.17884-.94133 2.51139-.15505.72088-.3933.90889-.76295.60211-.39728-.32969-.33685-1.6805.12223-2.73153.92845-2.12562 2.42634-7.38573 2.1748-7.63722-.0448-.0448-.5025-.002-1.01717.0961-2.03954.38681-5.13852-.47635-7.49255-2.08688-.44362-.30353-.84817-.51027-.899-.45946-.15404.15407-3.38336 9.80028-3.94999 11.79899-.51025 1.79981-.54827 1.867-1.05714 1.867-.66024 0-1.03148-.5044-.72842-.98967.11596-.18563.34861-.96308.51704-1.72763.67326-3.05571 3.78767-12.01071 5.58459-16.05766 1.63822-3.68952 5.22491-10.827145 6.19834-12.334947 1.53138-2.372061 3.27864-3.795337 7.83672-6.38369 1.02682-.583117 2.58109-1.506939 3.45393-2.052962l1.58697-.992754.90003-1.849776c.76499-1.572194 1.13019-2.074564 2.43374-3.347776 1.59851-1.561364 2.9092-2.445086 4.71461-3.178868.58669-.23845 1.12877-.545907 1.20455-.683244.24931-.451586 1.7055-5.596247 1.61083-5.690923-.0509-.05089-.96179.142565-2.02422.429898-2.56461.693586-5.37755.738708-7.35057.117895-3.11867-.981305-6.43031-3.981002-8.13248-7.36651-.81367-1.618343-1.83501-5.295493-2.35074-8.463643-.36206-2.224108-.47916-9.972831-.19963-13.20896l.1411-1.633614h-.56118c-.47257 0-.56118-.07295-.56118-.461952 0-.333407.16886-.54783.60677-.770543.33375-.169728.62989-.328049.65821-.351835.1503-.126376.59729-3.313105.48926-3.487928-.48257-.780831-.35676-5.484135.18767-7.016507.15505-.436406.23916-.793469.18688-.793469-.0523 0-.69168.476062-1.42092 1.057907-2.66486 2.126263-4.16245 2.80008-4.84685 2.180722-.84601-.76563-.0573-2.630514 2.12103-5.015317l.8759-.958884-.28397-.968762c-.33862-1.1552-.1338-2.46073.57518-3.666042.55697-.946973 2.62718-2.993308 4.21142-4.162999.66749-.492771 1.50604-1.175735 1.86346-1.517672 1.9557-1.870802 6.03771-3.760626 8.94048-4.1391204 2.6017-.3392117 9.76495.5631764 12.76792 1.6084494l1.8782.653746 3.09772-.05065 3.09771-.05065 1.30421.617545c1.78247.843992 3.03591 1.836747 3.92337 3.107289.41074.588047 1.07503 1.460135 1.47622 1.937956.40119.477835.9638 1.364285 1.25021 1.969897.70842 1.497926 1.53741 5.026928 1.42184 6.052466-.0888.787984-.0639.830924 1.26096 2.173086 1.34813 1.36574 2.15206 2.650527 2.15206 3.439202 0 .228944-.20619.622507-.45825.874551-.36264.362644-.65035.458254-1.37904.458254h-.9208l-.12703.847277c-.18603 1.240597-.67593 2.551131-1.76279 4.715778-1.04767 2.086583-2.25996 5.972164-2.25996 7.243564v.780012l.85997.128956c1.78076.267051 3.06073 2.115653 3.06073 4.42047 0 3.619534-3.62064 6.659795-6.77936 5.692677-.66641-.204023-.91649-.218604-.96856-.05648-.3265 1.016487-2.33381 16.977873-2.33381 18.557494 0 .656921.0621.797732.35179.797732.6899 0 3.40296 1.532535 4.48262 2.532118 1.6243 1.503788 1.96167 2.416916 1.84015 4.980331-.0524 1.105051-.0323 2.009198.0445 2.009198s1.10265.615696 2.27965 1.368222c3.04482 1.946732 8.12059 5.837528 8.75138 6.708327 1.32745 1.832491 3.741531 9.166098 6.621521 20.115028.68871 2.61843 1.52889 5.811 1.86701 7.09456.33808 1.28355.78946 2.73898 1.003 3.23425.41217.95577.32735 1.46067-.28471 1.69553-.61143.23465-1.13459-.3868-1.74512-2.07308-.32721-.90374-.67984-2.06323-.78361-2.57664-.18447-.91269-1.12625-4.80921-1.18433-4.90008-.0159-.0252-.61079.25137-1.32149.61473-.75734.38723-1.937911.78705-2.852631.96617l-1.56057.30551.1296 2.1603c.0713 1.18814.20534 2.77694.29789 3.53066.19272 1.56925.0164 2.14079-.63116 2.04818-.59246-.0847-.81979-.74391-1.05019-3.04518-.40968-4.09187-.45773-9.81826-.1144-13.62905.45852-5.08854.69284-6.11086 1.26883-5.53614.16098.16065.25199 1.13204.2934 3.13273.0545 2.63183.089 2.88722.37338 2.76316.17238-.0752.5211-.14489.77499-.15487.98706-.0388.52814 1.32542-.63193 1.87861-.60015.28617-.62241.33755-.73766 1.70109-.19238 2.27579-.15044 3.59018.11451 3.58888.25506-.002 3.599821-.95949 4.574121-1.31042.33377-.12019.60677-.34439.60677-.4982 0-.60989-2.335131-9.47034-3.213311-12.19265-1.65979-5.145152-2.54289-7.364-3.26803-8.211183-.87543-1.022718-10.03408-7.863713-10.21207-7.627834-.0262.03461-.31678.820618-.6459 1.746681-.59036 1.661075-.95022 2.414352-3.87837 8.117975-1.60507 3.126422-2.11968 4.490391-2.11968 5.618111 0 1.40822-1.36665 1.67547-2.4832.48557-.55514-.59166-1.99757-3.340449-1.99757-3.806751 0-.361778-.16381-.302048-.86866.316836-.35086.308062-.79256.56012-.98152.56012-.47787 0-.57693.662075-.57693 3.855605 0 2.24294.0929 3.15151.5601 5.47934.49027 2.44266.55981 3.18106.55769 5.92272-.003 1.72271.0998 4.71507.22482 6.64975.19756 3.05815.19095 3.58221-.0507 4.0127-.3157.56248-.77145.72209-1.04447.36579zm5.16684-25.15873c0-.764053 1.56567-4.14664 3.60756-7.793974 2.0043-3.580315 3.43998-7.430082 3.61995-9.707043.0953-1.204976.0536-1.452293-.40071-2.380973-.39193-.801012-.76882-1.221909-1.65989-1.853602-1.22933-.871474-3.09602-1.874834-3.23305-1.737799-.0455.0455-.0582.78509-.0281 1.643531l.0546 1.560825.6319-.98637c1.1901-1.857671 1.67566-.707104.59968 1.420929-.29596.585375-1.56678 2.618584-2.82403 4.518247-3.09465 4.675966-3.26041 5.048592-3.23919 7.281286.0132 1.380059.12589 2.10507.50819 3.267228.27024.821474.49241 1.60723.49374 1.746105.003.138922.33297.958059.73707 1.82032.7098 1.5147 1.13229 1.96294 1.13229 1.20129zm-.65133-5.534858c-.16743-.575974-.43894-1.717865-.60333-2.537568-.25368-1.26473-.25974-1.514595-.0398-1.650498.60465-.373663 1.50783 1.368759 1.76138 3.398018.15626 1.250688.007 1.837229-.46622 1.837229-.26146 0-.42297-.259419-.65199-1.047181zm-2.99326 1.956104c.0596-.167539-.0545-.713621-.25357-1.21354-.22395-.562385-.39892-.802151-.4589-.628883-.0948.273973-.4971 2.601971-.4971 2.876674 0 .229034 1.09242-.705009 1.20957-1.034251zm-18.07691-4.345741c.16023-.298673.45495-1.138804.65495-1.867003.60375-2.197921 1.72434-3.468709 3.06025-3.470355.88932-.0021 2.16691.942816 3.25305 2.403454.54388.73143 1.02034 1.329857 1.05873 1.329857.23159 0-.70974-5.244431-1.0994-6.125295-.48252-1.090864-.37613-2.544969.38169-5.216689.29856-1.052515.49869-1.913665.44469-1.913665-.0539 0-.56687.263882-1.13999.586386-1.54874.871622-3.0898 2.142069-3.90453 3.218915-.93406 1.234527-1.00783 1.371656-1.08241 2.012355-.0344.294984-.23194.765987-.43911 1.046649-1.02242 1.385237-2.45377 7.307956-2.26657 9.378516.0262.289213.52395-.349107 1.07865-1.383125zm3.70504-6.736699c-.10269-.03424-.41773-.113231-.70012-.175517-.65918-.145383-.69529-.77805-.061-1.067078.9162-.417441 2.74212.337889 2.47838 1.025218-.083.216461-.33028.304713-.82462.294407-.38828-.008-.79-.04277-.89268-.07703zm11.59687 2.596462c1.02177-.581515 3.14809-2.359544 5.17509-4.327348 1.4536-1.411166 1.6346-1.658355 1.52511-2.082982-.65063-2.523557-.26397-8.631024 1.12972-17.844805.80772-5.339818 1.77657-10.020924 2.17289-10.498447.34166-.41167.85008-.268192 1.04648.295302.15621.448021.31689.550053 1.01735.646057 1.03759.142224 2.09196-.134406 2.94111-.771665.97832-.734177 1.27405-1.147191 1.60168-2.236878.36804-1.22432.11898-2.558788-.6042-3.23768-1.12861-1.059404-3.74039-.191759-5.85856 1.946222-1.25429 1.266011-1.64174 1.29534-2.21602.16781-1.02079-2.004216-1.25714-5.167776-.59529-7.967811.52499-2.221087.62603-3.277393.48062-5.023458l-.13134-1.576393-.75388.546113c-2.19091 1.587074-3.93803-.06454-5.32529-5.034187l-.54145-1.939695-.46831.632799c-.25755.348025-.92988 1.262888-1.49405 2.033024-1.6048 2.190594-2.73325 3.360581-3.2413 3.360581-.6518 0-.89152-.610153-.78092-1.987785l.0947-1.179285-1.23667 1.133189c-1.36556 1.251275-3.58822 2.428843-5.21676 2.763856-.54417.111945-1.82811.20352-2.85316.20352-2.01454 0-2.98736-.264478-3.33039-.905415-.83532-1.560785 1.35403-7.506163 3.97574-10.796563l1.21658-1.526903-.69001.09434c-2.75013.376028-4.82272 1.264195-5.90756 2.531599-1.59782 1.866694-3.25589 6.049179-4.12068 10.39449-.34068 1.711899-.28368 1.875954.65675 1.889974.65307.0097 1.87836.6072 2.39374 1.16726.51525.559834.50226 1.572696-.0243 1.893223-.2789.169802-.40368.115787-.71776-.310803-.47215-.641197-.85712-.851382-1.92448-1.050793-.69855-.130506-.85272-.106326-.92562.145174-.25259.871008-.51913 7.183469-.41481 9.823394.11888 3.008281.80933 8.427932 1.32456 10.39712.43407 1.658972 1.69079 3.598719 3.55581 5.488506 2.65801 2.693207 4.8269 3.679222 8.12144 3.692067 3.47125.01363 7.74134-1.521243 11.70228-4.206108.42929-.290949.87035-.52901.98023-.52901.42934 0 .16566.738097-.50043 1.40082-.81693.812853-3.82529 2.850486-4.43394 3.003259-.36124.09066-.43172.261546-.51896 1.257681-.0555.634013-.73903 3.368313-1.51897 6.076194-2.02732 7.038855-2.0651 7.501776-.7633 9.35904 1.31088 1.870276 2.19372 2.666322 3.43308 3.09558.82465.285623 1.55321.170764 2.56342-.404183zm11.58494-35.861604c-.23884-.238805-.12044-1.093419.23135-1.670357.63201-1.036423 2.90264-1.779897 3.52753-1.155014.34732.347318.27287.896157-.12155.896157-.49508 0-2.07618.869421-2.74383 1.508789-.60129.575818-.69432.619598-.8935.420425zm-29.42267-1.487654c-.55936-.711097-.50099-1.682234.16415-2.731071.67775-1.068721 1.96651-2.042843 2.60151-1.966444.69133.08314.6586.354766-.15351 1.273677-.85368.966002-1.41552 2.087523-1.25513 2.505483.0612.159554.32396.290094.58391.290094.58261 0 .65884.633992.11149.926925-.69188.37028-1.63409.233186-2.05242-.298664zm14.82143-9.791186c-.86286-1.668624-4.90151-1.708354-6.63043-.06522-.57185.543441-1.03251.583004-1.15896.09949-.23143-.884939 1.22595-2.288709 2.9428-2.834524 3.009-.956627 6.58405.952297 5.76768 3.079695-.18058.470593-.59883.343696-.92109-.27945zm15.13506 5.599326 1.1584-.570291.10224-1.620361c.14801-2.345314.90043-4.998997 2.17979-7.68808.9401-1.975892 1.68895-4.108442 1.68895-4.809648 0-.09988-.3473-.411446-.77179-.692333-.42445-.280908-1.13861-.848868-1.58695-1.262142l-.81515-.75139v1.289122c0 1.584997-.30216 2.119013-1.19894 2.119013-.71532 0-1.41689-.495107-2.16506-1.527963l-.52334-.722429-.32232.985173c-.17729.541832-.48744 1.31376-.68926 1.715352-.33878.674206-.34756.817348-.11441 1.86699.41548 1.870554.32263 5.48473-.19605 7.633152-.3641 1.507969-.42323 2.130386-.33693 3.547282.0576.945124.1968 2.026338.30946 2.402705l.20479.684287.95903-1.014074c.57489-.607819 1.42317-1.242539 2.11754-1.584365zm-5.61562-11.985445c.80685-.842049 2.04076-3.04433 2.7142-4.844277.22016-.588478.47131-1.113848.55806-1.167469.32647-.201784.77097.163534 1.58213 1.300266 1.27445 1.78598 1.40983 1.746851 1.40983-.407548 0-1.412693.0664-1.873184.30898-2.141191.16995-.187783.38333-.341418.47414-.341418.0908 0 .73543.535638 1.4325 1.190299 1.86341 1.7501 3.19794 2.580479 4.32054 2.688355.59331.05702.93179.01696.93179-.1103 0-.328313-1.87981-2.43872-3.8014-4.267644-.98973-.942044-1.79957-1.845202-1.79957-2.007013 0-.435885.60124-.357584 1.39608.18179.38576.261787.72628.450818.75668.420074.11893-.120275-1.25992-4.96319-1.66375-5.843569-.50118-1.092621-2.39552-3.501692-3.55828-4.525217-.44685-.39335-1.26235-.964353-1.81213-1.268875-.98941-.54804-1.03103-.553884-4.08014-.5733-3.02472-.01926-3.11946-.03224-5.22758-.716645-1.37369-.44595-2.78591-.760126-3.92065-.872201-.97555-.09633-2.44579-.257046-3.26726-.357116-2.33448-.284367-5.65515-.227849-6.82729.116183-1.67798.492493-3.50633 1.351458-5.83924 2.743338-1.98358 1.18341-2.4215 1.548202-4.24958 3.539996-1.12094 1.221348-2.15593 2.44856-2.3 2.727134-.42532.822428-.53485 1.823022-.30469 2.782506l.21561.898769-1.60425 2.417455c-.88231 1.329595-1.51538 2.447066-1.40679 2.483263.29041.09679 2.09362-.965623 3.94385-2.323671 2.36556-1.736267 2.86668-1.601211 2.33767.629941-.35568 1.499973-.71924 3.798279-.61703 3.900495.12327.123296 1.06275-2.582214.95636-2.754296-.19328-.312793.64892-1.844212 1.53972-2.799644 1.1607-1.244928 3.18026-2.662571 4.51577-3.169854 1.43174-.543835 4.03781-.704209 4.79563-.295113 1.12501.607351 1.11887.564184.23471 1.64969-1.12305 1.37881-2.40911 3.475665-3.30742 5.392619-.8114 1.731499-1.76848 4.809569-1.66317 5.348925.0591.302432.31109.334936 2.59733.334936h2.53196l1.64677-.816433c1.96085-.972177 3.07504-2.033955 5.74169-5.471626 2.04867-2.641081 2.20792-2.803922 2.54043-2.598422.37062.229042.0923.981665-1.01595 2.746848-.86918 1.384409-1.04071 1.819418-1.29458 3.282617-.16097.927687-.26313 1.71623-.22707 1.752317.0361.03607.51687-.540753 1.06842-1.281854 1.93349-2.597975 3.83548-4.794562 4.15441-4.79794.42259-.0045.73114.627829 1.41044 2.890419 1.04481 3.48016 1.88351 5.134218 2.60323 5.134218.16642 0 .64741-.359918 1.06889-.799817zm-1.32773 90.122795c-.0617-.16093-.0164-.38839.10054-.50544.26276-.26277.88527.27416.68797.5934-.18635.30153-.65934.24874-.78851-.088zm-16.8624-2.31521c-.31967-.59728-.43474-2.09102-.2064-2.68003.48551-1.25266 1.39306.16977 1.28505 2.01415-.047.80336-.11422.94836-.46249.99795-.26209.0373-.48191-.0812-.61616-.33207zm16.28627-.13996c-.29657-.10656-.31208-1.66236-.0183-1.84389.29345-.18133.71848.44408.71848 1.05719 0 .54695-.33129.9192-.70014.7867zm-.28916-4.46483c-.23821-.23821-.13587-1.13906.15705-1.38216.41072-.34087.68596.007.61246.77479-.0575.59958-.45974.91713-.76951.60737zm-16.84436-1.63613c-.37642-.90083-.34671-1.66578.0852-2.19252.34716-.42346.37468-.42768.70014-.10745.26051.25633.33875.62299.33875 1.58694 0 1.16136-.0312 1.25806-.42394 1.3138-.33404.0474-.48255-.08-.70012-.60077zm25.95505-.97648c-1.99835-.39353-2.53945-.54457-3.26867-.91255-1.69817-.85686-2.37426-2.00133-2.17519-3.68211.0603-.50935.25969-1.2329.44302-1.60791l.33335-.6818 1.4936.0203c3.15267.0431 9.91483.28575 10.32719.3706.56306.11585 1.14559 1.38405 1.14966 2.50283.007 1.87155-.7049 3.09566-1.96066 3.3722-.4077.0898-1.28744.29018-1.9549.44533-1.11131.25829-3.47994.35171-4.3874.17301zm4.49318-1.75511c1.94802-.33703 1.87981-.29849 2.13407-1.20663.20172-.72041.17976-2.21873-.0357-2.43413-.0372-.0372-.4013.0123-.80915.11019-1.21023.29025-5.96617.2213-7.72144-.11193-1.03603-.1967-1.6283-.23453-1.75096-.11189-.10189.10193-.22683.76537-.27752 1.47428l-.0922 1.28895 1.09636.4037c.60298.22205 1.43242.47974 1.84316.57267 1.04249.23585 4.28628.24439 5.61338.0146zm-13.89047.2496c-.28832-.53874-.43262-1.99174-.22828-2.29832.46212-.69338 1.21989.64398 1.09447 1.93157-.0657.67467-.58399.89408-.86619.36675zm-16.16247-3.20266c-.16158-.26147.10575-1.50228.37116-1.72254.53014-.44.81491.35953.51998 1.46-.1103.41155-.69294.58322-.89114.26254zm15.13758-1.47607c-.0453-.077-.13803-.39969-.20603-.71706-.1265-.59063.24371-1.16136.60753-.93653.22905.14159.42249 1.15914.28726 1.51153-.113.2945-.54641.3839-.68876.14206zm-13.71804-3.0712c-.49146-.49147-.10229-2.01635.51459-2.01635.51784 0 .6618.72169.31134 1.56043-.30237.72366-.46715.81465-.82593.45592zm12.95705-.82119c-.21813-.56852-.32346-2.95514-.15569-3.52892.21448-.73358.73126-.83315.97653-.18813.20841.54823.22132 2.73231.0204 3.45438-.15348.5517-.66857.71255-.84124.26267zm-12.15155-4.73814c-.062-.10033-.0204-.52565.0927-.945199.15053-.558916.28996-.746694.52176-.702508.38762.07384.49133.657688.23614 1.328887-.18968.49895-.63587.66618-.85058.31882zm.47535-3.444646c-.23693-.285509-.3126-2.197476-.10057-2.540593.2295-.37135.82815-.183433.94896.297871.16647.663397-.0307 1.946973-.34796 2.264187-.22717.227172-.29652.224174-.50043-.02146z" stroke-width=".187"/></g></g></svg>